<?xml version="1.0" encoding="utf-8"?>
<!-- Generator: Adobe Illustrator 28.1.0, SVG Export Plug-In . SVG Version: 6.00 Build 0)  -->
<svg version="1.1" id="Capa_2" xmlns="http://www.w3.org/2000/svg" xmlns:xlink="http://www.w3.org/1999/xlink" x="0px" y="0px"
	 viewBox="0 0 800 800" style="enable-background:new 0 0 800 800;" xml:space="preserve">
<style type="text/css">
	.st0{fill:#5CA301;}
	.st1{fill:#054047;}
	.st2{fill:#2BC9D1;}
</style>
<g>
	<path class="st0" d="M415.04,685.69h-35.79c-13.81,0-25-11.19-25-25V139.31c0-13.81,11.19-25,25-25h35.79c13.81,0,25,11.19,25,25
		v521.39C440.04,674.5,428.84,685.69,415.04,685.69z"/>
	<path class="st0" d="M558.24,685.69h-35.79c-13.81,0-25-11.19-25-25V242.26c0-13.81,11.19-25,25-25h35.79c13.81,0,25,11.19,25,25
		v418.43C583.24,674.5,572.05,685.69,558.24,685.69z"/>
	<path class="st0" d="M271.83,685.69h-35.79c-13.81,0-25-11.19-25-25V398.4c0-13.81,11.19-25,25-25h35.79c13.81,0,25,11.19,25,25
		v262.29C296.83,674.5,285.64,685.69,271.83,685.69z"/>
	<path class="st0" d="M701.45,685.69h-35.79c-13.81,0-25-11.19-25-25V496.21c0-13.81,11.19-25,25-25h35.79c13.81,0,25,11.19,25,25
		v164.48C726.45,674.5,715.25,685.69,701.45,685.69z"/>
	<g>
		<rect x="98.01" y="618.77" class="st1" width="48.04" height="22.31"/>
		<rect x="98.01" y="656.52" class="st1" width="48.04" height="22.31"/>
		<polygon class="st1" points="148.62,473.65 122.03,422.91 95.43,473.65 68.84,524.4 98.01,524.4 98.01,603.33 146.05,603.33 
			146.05,524.4 175.22,524.4 		"/>
	</g>
	<g>
		<rect x="662.04" y="386.56" class="st2" width="43.01" height="19.97"/>
		<rect x="662.04" y="420.36" class="st2" width="43.01" height="19.97"/>
		<polygon class="st2" points="707.36,256.66 683.55,211.23 659.74,256.66 635.93,302.08 662.04,302.08 662.04,372.74 
			705.05,372.74 705.05,302.08 731.16,302.08 		"/>
	</g>
</g>
</svg>
